<svg id="visual" viewBox="0 0 960 300" width="960" height="300" xmlns="http://www.w3.org/2000/svg" xmlns:xlink="http://www.w3.org/1999/xlink" version="1.1"><rect x="0" y="0" width="960" height="300" fill="#E6C8A1"></rect><defs><linearGradient id="grad1_0" x1="68.8%" y1="0%" x2="100%" y2="100%"><stop offset="-14.000000000000007%" stop-color="#e6c8a1" stop-opacity="1"></stop><stop offset="114.00000000000001%" stop-color="#e6c8a1" stop-opacity="1"></stop></linearGradient></defs><defs><linearGradient id="grad2_0" x1="0%" y1="0%" x2="31.3%" y2="100%"><stop offset="-14.000000000000007%" stop-color="#e6c8a1" stop-opacity="1"></stop><stop offset="114.00000000000001%" stop-color="#e6c8a1" stop-opacity="1"></stop></linearGradient></defs><g transform="translate(960, 0)"><path d="M0 210C-17.6 213.3 -35.1 216.7 -46.7 204.7C-58.3 192.8 -64 165.6 -73.8 153.2C-83.5 140.8 -97.3 143.2 -112.9 141.5C-128.4 139.8 -145.6 134 -152.5 121.6C-159.3 109.1 -155.9 90 -156.8 75.5C-157.7 61 -163 51.2 -172.6 39.4C-182.2 27.6 -196.1 13.8 -210 0L0 0Z" fill="#DB645C"></path></g><g transform="translate(0, 300)"><path d="M0 -210C14 -199.1 28 -188.3 41.6 -182.3C55.2 -176.3 68.5 -175.2 83.7 -173.9C99 -172.6 116.3 -171 130.9 -164.2C145.6 -157.4 157.5 -145.3 163.4 -130.3C169.3 -115.3 169.2 -97.4 171.2 -82.4C173.2 -67.4 177.4 -55.3 184.3 -42.1C191.1 -28.8 200.5 -14.4 210 0L0 0Z" fill="#DB645C"></path></g></svg>